<mxfile host="Electron" agent="Mozilla/5.0 (Windows NT 10.0; Win64; x64) AppleWebKit/537.36 (KHTML, like Gecko) draw.io/28.2.5 Chrome/138.0.7204.251 Electron/37.6.1 Safari/537.36" version="28.2.5">
  <diagram name="Infrastructure" id="jFhx2JXExCpxwDYUF4yw">
    <mxGraphModel dx="2421" dy="2164" grid="1" gridSize="10" guides="1" tooltips="1" connect="1" arrows="1" fold="1" page="1" pageScale="1" pageWidth="850" pageHeight="1100" math="0" shadow="0">
      <root>
        <mxCell id="0" />
        <mxCell id="1" parent="0" />
        <mxCell id="326gA4oSRteBEdirEIxd-1" value="Client Layer" style="rounded=1;whiteSpace=wrap;html=1;fillColor=#b0e3e6;strokeColor=#0e8088;fontStyle=1;align=center;verticalAlign=top;fontColor=#FF0000;" vertex="1" parent="1">
          <mxGeometry x="10" y="-30" width="370" height="140" as="geometry" />
        </mxCell>
        <mxCell id="326gA4oSRteBEdirEIxd-2" value="Application Layer" style="rounded=1;whiteSpace=wrap;html=1;fillColor=#b0e3e6;strokeColor=#0e8088;fontStyle=1;align=center;verticalAlign=top;fontColor=#FF0000;" vertex="1" parent="1">
          <mxGeometry x="-390" y="180" width="1250" height="190" as="geometry" />
        </mxCell>
        <mxCell id="326gA4oSRteBEdirEIxd-3" value="Data Layer" style="rounded=1;whiteSpace=wrap;html=1;fillColor=#b0e3e6;strokeColor=#0e8088;fontStyle=1;align=center;verticalAlign=top;fontColor=#FF0000;" vertex="1" parent="1">
          <mxGeometry x="20" y="440" width="700" height="180" as="geometry" />
        </mxCell>
        <mxCell id="326gA4oSRteBEdirEIxd-4" value="Vue 3 SPA (Browser)" style="shape=rect;rounded=1;whiteSpace=wrap;html=1;glass=0;strokeColor=#2D7600;fillColor=#60a917;fontColor=#ffffff;" vertex="1" parent="1">
          <mxGeometry x="70" width="260" height="80" as="geometry" />
        </mxCell>
        <mxCell id="326gA4oSRteBEdirEIxd-5" value="Node.js API Server (REST / GraphQL)" style="shape=rect;rounded=1;whiteSpace=wrap;html=1;glass=0;strokeColor=#BD7000;fillColor=#f0a30a;fontColor=#000000;" vertex="1" parent="1">
          <mxGeometry x="60" y="230" width="280" height="90" as="geometry" />
        </mxCell>
        <mxCell id="326gA4oSRteBEdirEIxd-6" value="GeoServer (WMS / WFS / WCS)" style="shape=rect;rounded=1;whiteSpace=wrap;html=1;glass=0;fillColor=#0050ef;strokeColor=#001DBC;fontColor=#ffffff;" vertex="1" parent="1">
          <mxGeometry x="540" y="230" width="280" height="90" as="geometry" />
        </mxCell>
        <mxCell id="326gA4oSRteBEdirEIxd-7" value="PostgreSQL + PostGIS" style="shape=cylinder;whiteSpace=wrap;html=1;boundedLbl=1;rounded=0;strokeColor=#314354;fillColor=#647687;fontColor=#ffffff;" vertex="1" parent="1">
          <mxGeometry x="420" y="490" width="280" height="100" as="geometry" />
        </mxCell>
        <mxCell id="326gA4oSRteBEdirEIxd-8" value="HTTPS (REST)" style="endArrow=block;html=1;rounded=1;" edge="1" parent="1" source="326gA4oSRteBEdirEIxd-4" target="326gA4oSRteBEdirEIxd-5">
          <mxGeometry relative="1" as="geometry">
            <mxPoint as="targetPoint" />
          </mxGeometry>
        </mxCell>
        <mxCell id="326gA4oSRteBEdirEIxd-9" value="HTTP (WMS/WFS/WCS)" style="endArrow=block;html=1;rounded=1;" edge="1" parent="1" source="326gA4oSRteBEdirEIxd-5" target="326gA4oSRteBEdirEIxd-6">
          <mxGeometry relative="1" as="geometry">
            <mxPoint as="targetPoint" />
          </mxGeometry>
        </mxCell>
        <mxCell id="326gA4oSRteBEdirEIxd-10" value="SQL / ORM (e.g., Prisma, Sequelize)" style="endArrow=block;html=1;rounded=1;" edge="1" parent="1" source="326gA4oSRteBEdirEIxd-5" target="326gA4oSRteBEdirEIxd-7">
          <mxGeometry relative="1" as="geometry">
            <mxPoint as="targetPoint" />
          </mxGeometry>
        </mxCell>
        <mxCell id="326gA4oSRteBEdirEIxd-11" value="JDBC (PostGIS)" style="endArrow=block;html=1;rounded=1;" edge="1" parent="1" source="326gA4oSRteBEdirEIxd-6" target="326gA4oSRteBEdirEIxd-7">
          <mxGeometry relative="1" as="geometry">
            <mxPoint as="targetPoint" />
          </mxGeometry>
        </mxCell>
        <mxCell id="326gA4oSRteBEdirEIxd-12" value="Request map layers" style="endArrow=block;html=1;rounded=1;dashPattern=8 4;" edge="1" parent="1" source="326gA4oSRteBEdirEIxd-4" target="326gA4oSRteBEdirEIxd-6">
          <mxGeometry relative="1" as="geometry">
            <mxPoint as="targetPoint" />
          </mxGeometry>
        </mxCell>
        <mxCell id="326gA4oSRteBEdirEIxd-15" value="MongoDB" style="shape=cylinder;whiteSpace=wrap;html=1;boundedLbl=1;rounded=0;strokeColor=#3A5431;fillColor=#6d8764;fontColor=#ffffff;" vertex="1" parent="1">
          <mxGeometry x="60" y="490" width="280" height="100" as="geometry" />
        </mxCell>
        <mxCell id="326gA4oSRteBEdirEIxd-16" value="Mongoose" style="endArrow=block;html=1;rounded=1;entryX=0.5;entryY=0;entryDx=0;entryDy=0;exitX=0.5;exitY=1;exitDx=0;exitDy=0;" edge="1" parent="1" source="326gA4oSRteBEdirEIxd-5" target="326gA4oSRteBEdirEIxd-15">
          <mxGeometry relative="1" as="geometry">
            <mxPoint x="200" y="470" as="targetPoint" />
            <mxPoint x="160" y="400" as="sourcePoint" />
          </mxGeometry>
        </mxCell>
        <mxCell id="326gA4oSRteBEdirEIxd-17" value="service.copernicus" style="shape=rect;rounded=1;whiteSpace=wrap;html=1;glass=0;fillColor=#d80073;strokeColor=#A50040;fontColor=#ffffff;" vertex="1" parent="1">
          <mxGeometry x="-350" y="210" width="280" height="40" as="geometry" />
        </mxCell>
        <mxCell id="326gA4oSRteBEdirEIxd-19" value="service.ai-ch-processor" style="shape=rect;rounded=1;whiteSpace=wrap;html=1;glass=0;fillColor=#d80073;strokeColor=#A50040;fontColor=#ffffff;" vertex="1" parent="1">
          <mxGeometry x="-350" y="290" width="280" height="40" as="geometry" />
        </mxCell>
        <mxCell id="326gA4oSRteBEdirEIxd-20" value="HTTPS (REST)" style="endArrow=block;html=1;rounded=1;entryX=1;entryY=0.5;entryDx=0;entryDy=0;" edge="1" parent="1" target="326gA4oSRteBEdirEIxd-17">
          <mxGeometry relative="1" as="geometry">
            <mxPoint x="-70" y="120" as="targetPoint" />
            <mxPoint x="60" y="275" as="sourcePoint" />
          </mxGeometry>
        </mxCell>
        <mxCell id="326gA4oSRteBEdirEIxd-21" value="HTTPS (REST)" style="endArrow=block;html=1;rounded=1;exitX=0;exitY=0.5;exitDx=0;exitDy=0;entryX=1;entryY=0.5;entryDx=0;entryDy=0;" edge="1" parent="1" source="326gA4oSRteBEdirEIxd-5" target="326gA4oSRteBEdirEIxd-19">
          <mxGeometry relative="1" as="geometry">
            <mxPoint x="-100" y="267" as="targetPoint" />
            <mxPoint x="30" y="300" as="sourcePoint" />
          </mxGeometry>
        </mxCell>
      </root>
    </mxGraphModel>
  </diagram>
</mxfile>
